<?xml version="1.0" standalone="no"?>
<!DOCTYPE svg PUBLIC "-//W3C//DTD SVG 20010904//EN"
 "http://www.w3.org/TR/2001/REC-SVG-20010904/DTD/svg10.dtd">
<svg version="1.0" xmlns="http://www.w3.org/2000/svg"
 width="64.000000pt" height="64.000000pt" viewBox="0 0 64.000000 64.000000"
 preserveAspectRatio="xMidYMid meet">
  <g transform="translate(0.000000,64.000000) scale(0.100000,-0.100000)"
     fill="#624E88" stroke="none">
    <path d="M500 577 c-64 -22 -65 -22 -68 -62 -3 -36 -14 -51 -110 -147 -103
    -104 -108 -108 -150 -108 -39 0 -50 -6 -99 -53 -58 -55 -62 -77 -17 -77 21 0
    23 -2 13 -19 -24 -37 18 -70 49 -39 9 9 12 6 12 -14 0 -47 21 -43 77 15 47 49
    53 60 53 99 0 42 4 47 108 150 96 96 111 107 147 110 40 3 40 4 62 68 37 111
    34 114 -77 77z m42 -20 c-29 -31 -16 -44 15 -15 l23 22 -15 -50 c-8 -27 -15
    -52 -15 -56 0 -13 -75 -9 -88 4 -7 7 -12 29 -12 49 0 35 2 37 53 52 28 8 54
    16 56 16 3 1 -5 -9 -17 -22z m-92 -117 c0 -5 -4 -10 -10 -10 -5 0 -10 5 -10
    10 0 6 5 10 10 10 6 0 10 -4 10 -10z m-30 -30 c0 -5 -4 -10 -10 -10 -5 0 -10
    5 -10 10 0 6 5 10 10 10 6 0 10 -4 10 -10z m-30 -28 c0 -14 -299 -306 -307
    -299 -7 8 285 307 299 307 5 0 8 -3 8 -8z m-240 -187 c-36 -36 -51 -45 -79
    -45 l-35 0 44 45 c36 36 51 45 79 45 l35 0 -44 -45z m46 -114 l-46 -46 0 35
    c0 27 9 44 43 78 l42 43 3 -32 c3 -27 -4 -40 -42 -78z"/>
    <path d="M485 501 c-6 -11 9 -23 19 -14 9 9 7 23 -3 23 -6 0 -12 -4 -16 -9z"/>
    <path d="M460 381 c0 -5 5 -13 10 -16 6 -3 10 -2 10 4 0 5 -4 13 -10 16 -5 3
    -10 2 -10 -4z"/>
    <path d="M425 340 c3 -5 11 -10 16 -10 6 0 7 5 4 10 -3 6 -11 10 -16 10 -6 0
    -7 -4 -4 -10z"/>
    <path d="M390 305 c7 -9 15 -13 17 -11 7 7 -7 26 -19 26 -6 0 -6 -6 2 -15z"/>
    <path d="M355 270 c3 -5 11 -10 16 -10 6 0 7 5 4 10 -3 6 -11 10 -16 10 -6 0
    -7 -4 -4 -10z"/>
    <path d="M330 235 c7 -9 15 -13 17 -11 7 7 -7 26 -19 26 -6 0 -6 -6 2 -15z"/>
    <path d="M290 211 c0 -5 5 -13 10 -16 6 -3 10 -2 10 4 0 5 -4 13 -10 16 -5 3
    -10 2 -10 -4z"/>
  </g>
</svg>
